<svg fill="none" height="27" viewBox="0 0 27 27" width="27" xmlns="http://www.w3.org/2000/svg"><path d="m26.5334 7.11763c-.3305-1.43591-1.505-2.49529-2.9189-2.65332-3.3481-.37375-6.737-.3757-10.1102-.37375-3.3738-.00195-6.76315 0-10.11129.37375-1.41306.15803-2.586703 1.21741-2.917253 2.65332-.4704615 2.04489-.475757 4.27707-.475757 6.38247s0 4.3373.470462 6.3819c.329992 1.4356 1.503918 2.495 2.917808 2.6533 3.34786.374 6.73693.376 10.11073.374 3.3744.002 6.7626 0 10.1102-.374 1.4131-.158 2.5878-1.2174 2.9184-2.6533.4707-2.0449.4724-4.2768.4724-6.3819 0-2.1054.0039-4.33758-.4666-6.38247zm-16.5177 10.57317c0-2.9867 0-5.9421 0-8.92906 2.8615 1.49306 5.7041 2.97606 8.5837 4.47826-2.8707 1.4889-5.7147 2.963-8.5837 4.4508z" fill="#fff"/></svg>